# xmcd
#
# Track frame offsets:
#	150
#	26625
#	48392
#	71674
#	91384
#	113880
#	148804
#	174326
#	198448
#	222421
#	243071
#	255459
#	287490
#
# Disc length: 4225 seconds
#
# Revision: 1
# Processed by: cddbd v1.5.1PL2 Copyright (c) Steve Scherf et al.
# Submitted via: audiograbber 1.83.01
#
DISCID=bb107f0d
DTITLE=Andy Baum - BAUM - PUR LIVE
DYEAR=2005
DGENRE=
TTITLE0=I Open
TTITLE1=Don't Make A Fool
TTITLE2=Nightmare
TTITLE3=Standing Tall
TTITLE4=Only Whisper
TTITLE5=Warm And Tender Rain
TTITLE6=I've Been Loosing You
TTITLE7=Would You Love Me
TTITLE8=Where Have You Been
TTITLE9=YEAH YEAH YEAH
TTITLE10=Sleep Well
TTITLE11=Slow Down
TTITLE12=Daten-CD
EXTD=
EXTT0=
EXTT1=
EXTT2=
EXTT3=
EXTT4=
EXTT5=
EXTT6=
EXTT7=
EXTT8=
EXTT9=
EXTT10=
EXTT11=
EXTT12=
PLAYORDER=
